<svg width="74" height="65" viewBox="0 0 74 65" fill="none" xmlns="http://www.w3.org/2000/svg">
<circle cx="37.5" cy="32.5" r="31.5" fill="#301D4B" stroke="#840FF2" stroke-width="2"/>
<path d="M24.6511 28.7631L28.8144 41.6999L28.9743 41.7015L33.5879 27.8894L31.6373 27.7425L31.6635 25.0226L39.0232 25.0937L38.9982 27.6856L37.9413 27.7714C37.6638 27.7901 37.4603 27.8734 37.3308 28.0215C37.2016 28.1483 37.0714 28.3817 36.9401 28.7218L30.7221 46.2945L26.5623 46.2544L20.2129 27.7282L18.3899 27.6146L18.4162 24.8947L26.6718 24.9744L26.6467 27.5663L25.5899 27.6521C24.9281 27.6884 24.595 27.9412 24.5905 28.4105C24.5895 28.5172 24.6097 28.6347 24.6511 28.7631ZM46.1017 43.5629C48.6615 43.5877 49.9514 42.5761 49.9712 40.5282C49.9815 39.4615 49.4238 38.6668 48.2981 38.1439C47.7037 37.8395 46.9277 37.5546 45.9702 37.2894C45.0341 37.0243 44.2473 36.7607 43.6098 36.4985C42.9938 36.2153 42.3681 35.8359 41.7327 35.3604C40.4831 34.4096 39.8677 32.9636 39.8865 31.0223C39.9054 29.0598 40.5922 27.5303 41.9469 26.434C43.3231 25.3166 45.0991 24.7684 47.275 24.7894C49.4723 24.8106 51.5053 25.2676 53.3741 26.1604L53.3277 30.9601L50.0617 31.1526L50.0796 29.2967C50.0827 28.9767 50.0423 28.7416 49.9584 28.5915C49.7277 28.1839 48.9723 27.9739 47.6924 27.9616C46.4338 27.9494 45.493 28.1643 44.87 28.6063C44.2684 29.0486 43.9631 29.739 43.954 30.6776C43.9474 31.3602 44.1976 31.96 44.7047 32.4769C45.0427 32.8215 45.5412 33.1144 46.2002 33.3554C46.8808 33.5753 47.5933 33.8062 48.3377 34.0481C49.1034 34.2902 49.7729 34.5526 50.3461 34.8355C50.9408 35.1186 51.5557 35.5086 52.1909 36.0054C53.4829 36.9779 54.1193 38.4668 54.0999 40.472C54.0805 42.4773 53.34 44.0489 51.8783 45.1868C50.4379 46.3249 48.5337 46.8826 46.1658 46.8597C43.8193 46.8371 41.7116 46.3793 39.8428 45.4866L39.8916 40.4308L43.1576 40.2384L43.1388 42.1903C43.1357 42.5102 43.1761 42.7453 43.26 42.8955C43.3439 43.0456 43.5984 43.1974 44.0236 43.3509C44.4704 43.4832 45.163 43.5539 46.1017 43.5629Z" fill="#FFF8F8"/>
</svg>
